<?xml version="1.0" encoding="utf-8"?>
<!-- Generator: Adobe Illustrator 16.0.0, SVG Export Plug-In . SVG Version: 6.00 Build 0)  -->
<!DOCTYPE svg PUBLIC "-//W3C//DTD SVG 1.1//EN" "http://www.w3.org/Graphics/SVG/1.1/DTD/svg11.dtd">
<svg version="1.1" id="Layer_1" xmlns="http://www.w3.org/2000/svg" xmlns:xlink="http://www.w3.org/1999/xlink" x="0px" y="0px"
	 width="213.333px" height="196.667px" viewBox="0 0 213.333 196.667" enable-background="new 0 0 213.333 196.667"
	 xml:space="preserve">
<path fill="#EC6642" d="M59.833,163.153l-9.967-10.899L39.9,141.355c0,0-11.918,6.635-18.93,18.626c0,0,3.881-1.407,6.279-1.544
	c0.411-0.024,0.819,0.036,1.218,0.207c2.705,1.176-12.28,10.995-17.765,29.42c18.841-3.82,29.961-17.867,30.888-15.065
	c0.135,0.41,0.159,0.821,0.1,1.23c-0.354,2.375-2.102,6.115-2.102,6.115C52.157,174.432,59.833,163.153,59.833,163.153"/>
<rect x="38.616" y="140.129" transform="matrix(0.6748 0.738 -0.738 0.6748 125.727 5.4268)" fill="#024057" width="36.178" height="10.497"/>
<path fill="#024057" d="M78.69,80.41c0,0-11.038-29.007-63.781,27.144c0,0,29.689-14.776,37.067,6.366L78.69,80.41z"/>
<path fill="#024057" d="M123.373,129.275c0,0,27.91,13.584-32.722,61.106c0,0,17.367-28.251-3.034-37.485L123.373,129.275z"/>
<path fill="#BC2D1E" d="M199.352,14.937L199.352,14.937C185.868,0.19,136.545,23.343,89.187,66.65
	c-21.177,19.364-38.366,39.475-49.708,57.115l18.607,20.35L199.352,14.937z"/>
<path fill="#BC2D1E" d="M199.352,14.937l0.002,0.001c13.481,14.744-13.979,61.806-61.336,105.112
	c-21.177,19.365-42.739,34.692-61.323,44.414l-18.608-20.349L199.352,14.937z"/>
<path fill="#024057" d="M99.687,125.048c-5.707,5.219-14.564,4.823-19.783-0.884c-5.22-5.709-4.823-14.564,0.884-19.784
	c5.708-5.22,14.564-4.823,19.784,0.885C105.791,110.972,105.395,119.829,99.687,125.048"/>
<path fill="#5DC2DA" d="M98.385,116.41c0.525-2.529-0.123-5.264-2-7.317c-3.104-3.395-8.374-3.631-11.77-0.525
	c-1.749,1.6-2.653,3.774-2.7,5.972C85.291,113.715,91.729,112.947,98.385,116.41"/>
<path fill="#F0F0F0" d="M81.916,114.539c-0.043,2.066,0.67,4.152,2.175,5.798c3.104,3.396,8.374,3.631,11.769,0.526
	c1.343-1.229,2.183-2.797,2.526-4.453C91.729,112.947,85.291,113.715,81.916,114.539"/>
<path fill="#FFFFFF" d="M142.438,115.94c3.024-2.854,5.957-5.72,8.796-8.588c-8.102-23.468-25.57-42.571-48.222-52.734
	c-3.109,2.573-6.225,5.237-9.339,7.995C117.57,71.479,135.738,91.348,142.438,115.94"/>
<path fill="#FFFFFF" d="M192.414,55.191c1.9-3.351,3.553-6.583,4.951-9.673c-5.818-13.318-15.904-24.348-28.65-31.331
	c-3.203,1.118-6.568,2.476-10.074,4.07C174.922,24.789,187.359,38.391,192.414,55.191"/>
<path fill="#FFFFFF" d="M126.154,130.447c3.007-2.524,6.019-5.145,9.025-7.84c-8.084-23.813-25.796-43.183-48.794-53.357
	c-2.951,2.754-5.83,5.52-8.614,8.289C101.421,86.422,119.416,106.1,126.154,130.447"/>
<defs>
	<filter id="Adobe_OpacityMaskFilter" filterUnits="userSpaceOnUse" x="29.261" y="23.589" width="186.434" height="186.331">
		<feFlood  style="flood-color:white;flood-opacity:1" result="back"/>
		<feBlend  in="SourceGraphic" in2="back" mode="normal"/>
	</filter>
</defs>
<mask maskUnits="userSpaceOnUse" x="29.261" y="23.589" width="186.434" height="186.331" id="SVGID_1_">
	<g filter="url(#Adobe_OpacityMaskFilter)">
		<g enable-background="new    ">
			<g>
				<defs>
					<path id="SVGID_2_" d="M173.873,74.705c0,0-1.33,1.509-3.77,4.045c-1.227,1.26-2.711,2.795-4.459,4.508
						c-1.744,1.72-3.725,3.645-5.937,5.689c-2.171,2.083-4.638,4.225-7.19,6.535c-2.619,2.245-5.341,4.647-8.254,7.018
						c-2.914,2.368-5.897,4.838-9.047,7.202c-1.563,1.195-3.119,2.417-4.712,3.606c-1.608,1.165-3.228,2.333-4.843,3.502
						c-3.197,2.382-6.538,4.556-9.771,6.759c-0.811,0.549-1.618,1.094-2.422,1.638c-0.818,0.516-1.634,1.03-2.444,1.539
						c-1.621,1.018-3.223,2.021-4.795,3.008c-1.567,0.997-3.117,1.961-4.675,2.829c-1.545,0.893-3.055,1.764-4.526,2.611
						c-1.474,0.838-2.885,1.693-4.289,2.445c-1.407,0.739-2.769,1.452-4.077,2.139c-2.62,1.351-4.981,2.663-7.136,3.693
						c-2.157,1.016-4.038,1.901-5.588,2.63c-3.092,1.457-4.857,2.288-4.857,2.288l4.547,10.418c0,0,1.776-1.037,4.883-2.849
						c1.549-0.905,3.432-2.005,5.589-3.266c2.149-1.275,4.493-2.855,7.086-4.499c1.291-0.831,2.636-1.695,4.028-2.59
						c1.384-0.909,2.768-1.921,4.214-2.92c1.439-1.009,2.915-2.044,4.429-3.104c1.522-1.035,3.029-2.168,4.55-3.333
						c1.526-1.154,3.078-2.329,4.65-3.519c0.782-0.596,1.57-1.193,2.361-1.797c0.774-0.628,1.55-1.258,2.331-1.891
						c3.109-2.543,6.313-5.056,9.357-7.766c1.535-1.331,3.074-2.663,4.604-3.988c1.512-1.348,2.982-2.728,4.458-4.074
						c2.974-2.671,5.772-5.433,8.499-8.077c2.725-2.646,5.256-5.307,7.686-7.788c2.362-2.551,4.644-4.91,6.636-7.188
						C169.104,81.165,173.873,74.704,173.873,74.705"/>
				</defs>
				<clipPath id="SVGID_3_">
					<use xlink:href="#SVGID_2_"  overflow="visible"/>
				</clipPath>
				<defs>
					<filter id="Adobe_OpacityMaskFilter_1_" filterUnits="userSpaceOnUse" x="29.26" y="23.589" width="186.435" height="186.332">
						<feFlood  style="flood-color:white;flood-opacity:1" result="back"/>
						<feBlend  in="SourceGraphic" in2="back" mode="normal"/>
					</filter>
				</defs>
				<mask maskUnits="userSpaceOnUse" x="29.26" y="23.589" width="186.435" height="186.332" id="SVGID_1_">
					<g filter="url(#Adobe_OpacityMaskFilter_1_)">
						<g enable-background="new    ">
						</g>
					</g>
				</mask>
				
					<linearGradient id="SVGID_4_" gradientUnits="userSpaceOnUse" x1="-283.8223" y1="480.1587" x2="-282.8223" y2="480.1587" gradientTransform="matrix(-103.1041 92.8403 -92.8403 -103.1041 15481.1094 75933.5078)">
					<stop  offset="0" style="stop-color:#9C9BA1"/>
					<stop  offset="0.129" style="stop-color:#9C9BA1"/>
					<stop  offset="0.224" style="stop-color:#99969C"/>
					<stop  offset="0.3495" style="stop-color:#8E898D"/>
					<stop  offset="0.4921" style="stop-color:#7C7476"/>
					<stop  offset="0.6475" style="stop-color:#645959"/>
					<stop  offset="0.8131" style="stop-color:#463937"/>
					<stop  offset="0.985" style="stop-color:#221611"/>
					<stop  offset="1" style="stop-color:#1E120D"/>
				</linearGradient>
				<polygon clip-path="url(#SVGID_3_)" mask="url(#SVGID_1_)" fill="url(#SVGID_4_)" points="127.848,23.589 29.26,112.362 
					117.107,209.921 215.695,121.149 				"/>
			</g>
		</g>
	</g>
</mask>
<g>
	<g>
		<defs>
			<rect id="SVGID_5_" x="71.082" y="74.705" width="102.791" height="84.102"/>
		</defs>
		<clipPath id="SVGID_6_">
			<use xlink:href="#SVGID_5_"  overflow="visible"/>
		</clipPath>
		<g clip-path="url(#SVGID_6_)">
			<defs>
				<path id="SVGID_7_" d="M173.873,74.705c0,0-1.33,1.509-3.77,4.045c-1.226,1.26-2.711,2.795-4.459,4.508
					c-1.744,1.719-3.725,3.645-5.937,5.69c-2.171,2.082-4.638,4.224-7.19,6.535c-2.619,2.244-5.341,4.646-8.254,7.017
					c-2.914,2.369-5.897,4.838-9.047,7.202c-1.563,1.195-3.119,2.417-4.712,3.606c-1.61,1.164-3.228,2.333-4.843,3.502
					c-3.197,2.382-6.538,4.556-9.771,6.759c-0.811,0.549-1.618,1.094-2.422,1.638c-0.818,0.516-1.633,1.03-2.444,1.539
					c-1.621,1.018-3.223,2.021-4.795,3.008c-1.567,0.997-3.117,1.961-4.675,2.829c-1.545,0.893-3.056,1.764-4.526,2.612
					c-1.474,0.837-2.886,1.692-4.289,2.444c-1.408,0.739-2.769,1.451-4.078,2.14c-2.618,1.35-4.98,2.662-7.135,3.692
					c-2.157,1.016-4.038,1.901-5.587,2.63c-3.093,1.456-4.858,2.288-4.858,2.288l4.547,10.417c0,0,1.776-1.037,4.883-2.848
					c1.549-0.905,3.432-2.005,5.589-3.266c2.149-1.275,4.493-2.855,7.085-4.499c1.292-0.83,2.637-1.695,4.029-2.59
					c1.384-0.908,2.768-1.922,4.214-2.921c1.439-1.008,2.915-2.043,4.429-3.103c1.522-1.035,3.029-2.168,4.55-3.333
					c1.526-1.154,3.078-2.329,4.65-3.519c0.782-0.597,1.57-1.193,2.361-1.797c0.774-0.629,1.55-1.259,2.331-1.891
					c3.109-2.543,6.313-5.056,9.357-7.765c1.535-1.332,3.074-2.663,4.604-3.988c1.511-1.348,2.981-2.729,4.457-4.075
					c2.974-2.671,5.772-5.433,8.499-8.078c2.725-2.645,5.256-5.306,7.686-7.788c2.362-2.55,4.644-4.908,6.636-7.188
					C169.104,81.165,173.873,74.704,173.873,74.705"/>
			</defs>
			<clipPath id="SVGID_8_">
				<use xlink:href="#SVGID_7_"  overflow="visible"/>
			</clipPath>
			
				<linearGradient id="SVGID_9_" gradientUnits="userSpaceOnUse" x1="-283.8223" y1="480.1587" x2="-282.8223" y2="480.1587" gradientTransform="matrix(-103.1041 92.8403 -92.8403 -103.1041 15481.1094 75933.5078)">
				<stop  offset="0" style="stop-color:#E8EEED"/>
				<stop  offset="0.129" style="stop-color:#E8EEED"/>
				<stop  offset="0.4568" style="stop-color:#EDF2F1"/>
				<stop  offset="0.8874" style="stop-color:#FBFCFC"/>
				<stop  offset="1" style="stop-color:#FFFFFF"/>
			</linearGradient>
			<polygon clip-path="url(#SVGID_8_)" fill="url(#SVGID_9_)" points="127.848,23.589 29.261,112.362 117.107,209.92 
				215.694,121.148 			"/>
		</g>
	</g>
</g>
<defs>
	<filter id="Adobe_OpacityMaskFilter_2_" filterUnits="userSpaceOnUse" x="-9.542" y="-56.297" width="262.26" height="262.172">
		<feFlood  style="flood-color:white;flood-opacity:1" result="back"/>
		<feBlend  in="SourceGraphic" in2="back" mode="normal"/>
	</filter>
</defs>
<mask maskUnits="userSpaceOnUse" x="-9.542" y="-56.297" width="262.26" height="262.172" id="SVGID_10_">
	<g filter="url(#Adobe_OpacityMaskFilter_2_)">
		<g enable-background="new    ">
			<g>
				<defs>
					<path id="SVGID_11_" d="M153.657,37.427c17.417-13.671,39.497-22.424,39.497-22.424c-24.721,1.936-45.953,15.834-45.953,15.834
						c-57.522,28.603-97.18,97.614-97.18,97.614l7.692,6.124C112.301,64.702,153.657,37.427,153.657,37.427"/>
				</defs>
				<clipPath id="SVGID_12_">
					<use xlink:href="#SVGID_11_"  overflow="visible"/>
				</clipPath>
				<defs>
					
						<filter id="Adobe_OpacityMaskFilter_3_" filterUnits="userSpaceOnUse" x="-9.543" y="-56.297" width="262.261" height="262.174">
						<feFlood  style="flood-color:white;flood-opacity:1" result="back"/>
						<feBlend  in="SourceGraphic" in2="back" mode="normal"/>
					</filter>
				</defs>
				<mask maskUnits="userSpaceOnUse" x="-9.543" y="-56.297" width="262.261" height="262.174" id="SVGID_10_">
					<g filter="url(#Adobe_OpacityMaskFilter_3_)">
						<g enable-background="new    ">
						</g>
					</g>
				</mask>
				
					<linearGradient id="SVGID_13_" gradientUnits="userSpaceOnUse" x1="-283.6011" y1="481.0825" x2="-282.6006" y2="481.0825" gradientTransform="matrix(-139.1454 127.6388 127.6388 139.1454 -100674.4063 -30732.0918)">
					<stop  offset="0" style="stop-color:#9C9BA1"/>
					<stop  offset="0.4731" style="stop-color:#9C9BA1"/>
					<stop  offset="0.5094" style="stop-color:#99969C"/>
					<stop  offset="0.5575" style="stop-color:#8E898D"/>
					<stop  offset="0.6121" style="stop-color:#7C7476"/>
					<stop  offset="0.6715" style="stop-color:#645959"/>
					<stop  offset="0.7349" style="stop-color:#463937"/>
					<stop  offset="0.8007" style="stop-color:#221611"/>
					<stop  offset="0.8065" style="stop-color:#1E120D"/>
					<stop  offset="1" style="stop-color:#1E120D"/>
				</linearGradient>
				<polygon clip-path="url(#SVGID_12_)" mask="url(#SVGID_10_)" fill="url(#SVGID_13_)" points="252.718,79.937 115.425,205.876 
					-9.543,69.642 127.75,-56.297 				"/>
			</g>
		</g>
	</g>
</mask>
<g>
	<g>
		<defs>
			<rect id="SVGID_14_" x="50.022" y="15.003" width="143.132" height="119.572"/>
		</defs>
		<clipPath id="SVGID_15_">
			<use xlink:href="#SVGID_14_"  overflow="visible"/>
		</clipPath>
		<g clip-path="url(#SVGID_15_)">
			<defs>
				<path id="SVGID_16_" d="M153.657,37.427c17.417-13.671,39.497-22.424,39.497-22.424c-24.721,1.936-45.953,15.834-45.953,15.834
					c-57.522,28.603-97.179,97.615-97.179,97.615l7.691,6.123C112.301,64.702,153.657,37.427,153.657,37.427"/>
			</defs>
			<clipPath id="SVGID_17_">
				<use xlink:href="#SVGID_16_"  overflow="visible"/>
			</clipPath>
			
				<linearGradient id="SVGID_18_" gradientUnits="userSpaceOnUse" x1="-283.6011" y1="481.0825" x2="-282.6006" y2="481.0825" gradientTransform="matrix(-139.1454 127.6388 127.6388 139.1454 -100674.4063 -30732.0918)">
				<stop  offset="0" style="stop-color:#E8EEED"/>
				<stop  offset="0.4731" style="stop-color:#E8EEED"/>
				<stop  offset="0.5985" style="stop-color:#EDF2F1"/>
				<stop  offset="0.7634" style="stop-color:#FBFCFC"/>
				<stop  offset="0.8065" style="stop-color:#FFFFFF"/>
				<stop  offset="1" style="stop-color:#FFFFFF"/>
			</linearGradient>
			<polygon clip-path="url(#SVGID_17_)" fill="url(#SVGID_18_)" points="252.718,79.937 115.426,205.875 -9.542,69.642 
				127.75,-56.297 			"/>
		</g>
	</g>
</g>
<path fill="#024057" d="M170.48,65.85c-7.373,6.742-18.814,6.231-25.557-1.142c-6.742-7.374-6.23-18.815,1.143-25.557
	c7.373-6.742,18.813-6.231,25.556,1.143C178.364,47.666,177.854,59.108,170.48,65.85"/>
<path fill="#5DC2DA" d="M168.799,54.691c0.677-3.268-0.16-6.801-2.584-9.452c-4.012-4.386-10.819-4.691-15.205-0.681
	c-2.26,2.067-3.428,4.877-3.487,7.716C151.882,51.211,160.199,50.217,168.799,54.691"/>
<path fill="#F0F0F0" d="M147.522,52.273c-0.056,2.67,0.865,5.364,2.81,7.489c4.01,4.387,10.817,4.69,15.203,0.681
	c1.734-1.587,2.82-3.613,3.264-5.752C160.199,50.218,151.881,51.21,147.522,52.273"/>
</svg>
