<svg height="512pt" viewBox="0 0 512 512.00126" width="512pt" xmlns="http://www.w3.org/2000/svg"><path d="m102.46875 102.46875h307.0625v307.066406h-307.0625zm0 0" fill="#f4ca62"/><path d="m170.707031 170.707031h170.589844v162.058594h-170.589844zm0 0" fill="#a8a8a8"/><path d="m213.351562 230.414062 42.648438 25.585938 42.648438-25.585938-42.648438-17.0625zm0 0" fill="#b94137"/><path d="m256 298.648438-42.648438-17.058594v-51.175782l42.648438 17.058594 42.648438-17.058594v51.175782zm0 0" fill="#fbb540"/><path d="m256 298.648438v-51.175782l42.648438-17.058594v51.175782zm0 0" fill="#6b9777"/><g fill="#b3e4e8"><path d="m119.527344 51.292969c0 9.417969-7.636719 17.058593-17.058594 17.058593s-17.058594-7.640624-17.058594-17.058593c0-9.421875 7.636719-17.058594 17.058594-17.058594s17.058594 7.636719 17.058594 17.058594zm0 0"/><path d="m273.058594 25.703125c0 9.421875-7.636719 17.058594-17.058594 17.058594s-17.058594-7.636719-17.058594-17.058594 7.636719-17.058594 17.058594-17.058594 17.058594 7.636719 17.058594 17.058594zm0 0"/><path d="m426.59375 51.292969c0 9.417969-7.640625 17.058593-17.0625 17.058593-9.417969 0-17.058594-7.640624-17.058594-17.058593 0-9.421875 7.640625-17.058594 17.058594-17.058594 9.421875 0 17.0625 7.636719 17.0625 17.058594zm0 0"/><path d="m42.761719 256c0 9.421875-7.636719 17.058594-17.058594 17.058594s-17.058594-7.636719-17.058594-17.058594 7.636719-17.058594 17.058594-17.058594 17.058594 7.636719 17.058594 17.058594zm0 0"/><path d="m59.820312 375.414062c0 9.421876-7.636718 17.058594-17.058593 17.058594s-17.058594-7.636718-17.058594-17.058594c0-9.421874 7.636719-17.058593 17.058594-17.058593s17.058593 7.636719 17.058593 17.058593zm0 0"/><path d="m59.820312 136.585938c0 9.421874-7.636718 17.058593-17.058593 17.058593s-17.058594-7.636719-17.058594-17.058593c0-9.421876 7.636719-17.058594 17.058594-17.058594s17.058593 7.636718 17.058593 17.058594zm0 0"/><path d="m486.300781 375.414062c0 9.421876-7.640625 17.058594-17.0625 17.058594-9.417969 0-17.058593-7.636718-17.058593-17.058594 0-9.421874 7.640624-17.058593 17.058593-17.058593 9.421875 0 17.0625 7.636719 17.0625 17.058593zm0 0"/><path d="m486.300781 136.585938c0 9.421874-7.640625 17.058593-17.0625 17.058593-9.417969 0-17.058593-7.636719-17.058593-17.058593 0-9.421876 7.640624-17.058594 17.058593-17.058594 9.421875 0 17.0625 7.636718 17.0625 17.058594zm0 0"/><path d="m503.359375 256c0 9.421875-7.640625 17.058594-17.058594 17.058594-9.421875 0-17.0625-7.636719-17.0625-17.058594s7.640625-17.058594 17.0625-17.058594c9.417969 0 17.058594 7.636719 17.058594 17.058594zm0 0"/><path d="m119.527344 460.710938c0 9.421874-7.636719 17.058593-17.058594 17.058593s-17.058594-7.636719-17.058594-17.058593c0-9.421876 7.636719-17.058594 17.058594-17.058594s17.058594 7.636718 17.058594 17.058594zm0 0"/><path d="m273.058594 486.300781c0 9.421875-7.636719 17.058594-17.058594 17.058594s-17.058594-7.636719-17.058594-17.058594 7.636719-17.058593 17.058594-17.058593 17.058594 7.636718 17.058594 17.058593zm0 0"/><path d="m426.59375 460.710938c0 9.421874-7.640625 17.058593-17.0625 17.058593-9.417969 0-17.058594-7.636719-17.058594-17.058593 0-9.421876 7.640625-17.058594 17.058594-17.058594 9.421875 0 17.0625 7.636718 17.0625 17.058594zm0 0"/></g><path d="m418.0625 264.53125h44.21875c4.710938 13.324219 19.328125 20.304688 32.652344 15.59375 13.324218-4.710938 20.308594-19.328125 15.597656-32.652344-4.710938-13.324218-19.332031-20.308594-32.65625-15.597656-7.285156 2.578125-13.019531 8.308594-15.59375 15.597656h-44.21875v-102.355468h27.15625c4.710938 13.324218 19.332031 20.304687 32.65625 15.59375 13.324219-4.710938 20.308594-19.328126 15.597656-32.652344-4.710937-13.324219-19.332031-20.308594-32.65625-15.597656-7.289062 2.578124-13.019531 8.308593-15.597656 15.597656h-27.15625v-25.589844c0-4.710938-3.820312-8.53125-8.53125-8.53125h-42.648438v-34.117188h18.628907c4.710937 13.324219 19.332031 20.308594 32.65625 15.597657 13.324219-4.710938 20.304687-19.332031 15.59375-32.65625-4.710938-13.324219-19.328125-20.308594-32.652344-15.597657-7.289063 2.578126-13.019531 8.308594-15.597656 15.597657h-35.6875v51.175781h-85.292969v-44.214844c13.324219-4.710937 20.304688-19.332031 15.59375-32.65625-4.710938-13.324218-19.328125-20.304687-32.652344-15.597656-13.324218 4.710938-20.308594 19.332031-15.597656 32.65625 2.578125 7.289062 8.308594 13.019531 15.597656 15.597656v44.214844h-85.296875v-51.175781h-35.6875c-4.710937-13.324219-19.332031-20.304688-32.65625-15.59375-13.324219 4.707031-20.304687 19.328125-15.59375 32.652343 4.710938 13.324219 19.328125 20.308594 32.652344 15.597657 7.289063-2.578125 13.019531-8.308594 15.597656-15.597657h18.628907v34.121094h-42.648438c-4.710938 0-8.53125 3.816406-8.53125 8.527344v25.589844h-27.15625c-4.710938-13.324219-19.332031-20.308594-32.65625-15.597656-13.324219 4.710937-20.304688 19.332031-15.59375 32.65625 4.707031 13.324218 19.328125 20.304687 32.652344 15.59375 7.289062-2.574219 13.019531-8.308594 15.597656-15.59375h27.15625v102.355468h-44.214844c-4.710937-13.324218-19.332031-20.308594-32.65625-15.597656-13.324218 4.710938-20.304687 19.332031-15.59375 32.65625 4.707032 13.324219 19.328125 20.304688 32.652344 15.59375 7.289062-2.574219 13.019531-8.308594 15.597656-15.59375h44.214844v102.355469h-27.15625c-4.710938-13.324219-19.332031-20.308594-32.65625-15.597657-13.324219 4.710938-20.304688 19.332032-15.59375 32.65625 4.710938 13.324219 19.328125 20.304688 32.652344 15.59375 7.289062-2.574218 13.019531-8.308593 15.597656-15.59375h27.15625v25.589844c0 4.707032 3.820312 8.527344 8.53125 8.527344h42.648438v34.117188h-18.628907c-4.710937-13.320313-19.332031-20.304688-32.65625-15.59375-13.324219 4.710937-20.304687 19.332031-15.59375 32.65625 4.710938 13.320312 19.332031 20.304687 32.65625 15.59375 7.285157-2.578126 13.019531-8.308594 15.59375-15.59375h35.6875v-51.179688h85.296875v44.21875c-13.324218 4.710938-20.308594 19.332031-15.597656 32.652344 4.710938 13.324218 19.332031 20.308594 32.65625 15.597656s20.304688-19.332031 15.59375-32.65625c-2.574219-7.285156-8.308594-13.019531-15.59375-15.59375v-44.21875h85.296875v51.175781h35.6875c4.710937 13.324219 19.328125 20.308594 32.652344 15.597657 13.324219-4.710938 20.308593-19.332032 15.597656-32.65625-4.710937-13.324219-19.332031-20.304688-32.65625-15.59375-7.285156 2.574218-13.019531 8.308593-15.59375 15.59375h-18.628906v-34.117188h42.648437c4.710938 0 8.527344-3.820312 8.527344-8.53125v-25.585938h27.160156c4.710938 13.324219 19.328125 20.304688 32.652344 15.59375 13.324219-4.710937 20.308594-19.332031 15.597656-32.65625-4.710937-13.320312-19.332031-20.304687-32.65625-15.59375-7.285156 2.574219-13.019531 8.308594-15.59375 15.59375h-27.160156zm68.238281-17.058594c4.707031 0 8.527344 3.816406 8.527344 8.527344s-3.820313 8.53125-8.527344 8.53125c-4.710937 0-8.53125-3.820312-8.53125-8.53125s3.820313-8.527344 8.53125-8.527344zm-17.0625-119.414062c4.710938 0 8.53125 3.816406 8.53125 8.527344 0 4.710937-3.820312 8.53125-8.53125 8.53125-4.707031 0-8.527343-3.820313-8.527343-8.53125 0-4.710938 3.820312-8.527344 8.527343-8.527344zm-59.707031-85.296875c4.710938 0 8.53125 3.820312 8.53125 8.53125 0 4.710937-3.816406 8.527343-8.53125 8.527343-4.710938 0-8.527344-3.816406-8.527344-8.527343 0-4.710938 3.820313-8.53125 8.527344-8.53125zm-153.53125-25.589844c4.710938 0 8.53125 3.820313 8.53125 8.53125s-3.820312 8.53125-8.53125 8.53125-8.527344-3.820313-8.527344-8.53125 3.816406-8.53125 8.527344-8.53125zm-153.53125 42.648437c-4.710938 0-8.53125-3.816406-8.53125-8.527343 0-4.710938 3.820312-8.53125 8.53125-8.53125s8.53125 3.820312 8.53125 8.53125c0 4.710937-3.820312 8.527343-8.53125 8.527343zm-59.707031 85.296876c-4.710938 0-8.53125-3.820313-8.53125-8.53125 0-4.710938 3.820312-8.527344 8.53125-8.527344 4.710937 0 8.53125 3.816406 8.53125 8.527344 0 4.710937-3.820313 8.53125-8.53125 8.53125zm-17.058594 119.414062c-4.710937 0-8.53125-3.820312-8.53125-8.53125s3.820313-8.527344 8.53125-8.527344 8.527344 3.816406 8.527344 8.527344-3.816407 8.53125-8.527344 8.53125zm17.058594 119.414062c-4.710938 0-8.53125-3.820312-8.53125-8.53125 0-4.710937 3.820312-8.527343 8.53125-8.527343 4.710937 0 8.53125 3.816406 8.53125 8.527343 0 4.710938-3.820313 8.53125-8.53125 8.53125zm59.707031 85.296876c-4.710938 0-8.53125-3.820313-8.53125-8.53125 0-4.710938 3.820312-8.53125 8.53125-8.53125s8.53125 3.820312 8.53125 8.53125c0 4.710937-3.820312 8.53125-8.53125 8.53125zm153.53125 25.585937c-4.710938 0-8.527344-3.816406-8.527344-8.527344 0-4.710937 3.816406-8.53125 8.527344-8.53125s8.53125 3.820313 8.53125 8.53125c0 4.710938-3.820312 8.527344-8.53125 8.527344zm153.53125-42.648437c4.710938 0 8.53125 3.820312 8.53125 8.53125 0 4.710937-3.816406 8.53125-8.53125 8.53125-4.710938 0-8.527344-3.820313-8.527344-8.53125 0-4.710938 3.820313-8.53125 8.527344-8.53125zm-8.527344-51.175782h-290.003906v-290.003906h290.003906zm68.234375-34.117187c4.710938 0 8.53125 3.816406 8.53125 8.527343 0 4.710938-3.820312 8.53125-8.53125 8.53125-4.707031 0-8.527343-3.820312-8.527343-8.53125 0-4.710937 3.820312-8.527343 8.527343-8.527343zm0 0"/><path d="m170.707031 349.828125h170.589844c4.710937 0 8.527344-3.820313 8.527344-8.53125v-170.589844c0-4.710937-3.816407-8.53125-8.527344-8.53125h-170.589844c-4.710937 0-8.53125 3.820313-8.53125 8.53125v170.589844c0 4.710937 3.820313 8.53125 8.53125 8.53125zm8.527344-170.59375h153.53125v153.53125h-153.53125zm0 0"/><path d="m162.175781 128.058594h17.058594v17.058594h-17.058594zm0 0"/><path d="m196.292969 128.058594h17.058593v17.058594h-17.058593zm0 0"/><path d="m230.414062 128.058594h17.058594v17.058594h-17.058594zm0 0"/><path d="m264.53125 366.886719h17.058594v17.058593h-17.058594zm0 0"/><path d="m298.648438 366.886719h17.058593v17.058593h-17.058593zm0 0"/><path d="m332.765625 366.886719h17.058594v17.058593h-17.058594zm0 0"/><path d="m306.5625 227.410156c-.179688-.5-.414062-.984375-.6875-1.441406-.144531-.230469-.300781-.453125-.472656-.675781-.308594-.398438-.648438-.773438-1.023438-1.117188-.210937-.1875-.40625-.382812-.628906-.550781-.222656-.171875-.207031-.199219-.316406-.273438-.371094-.226562-.757813-.429687-1.160156-.597656-.160157-.070312-.289063-.195312-.453126-.265625l-42.648437-17.058593c-2.039063-.800782-4.304687-.800782-6.34375 0l-42.648437 17.058593c-.164063.070313-.28125.1875-.445313.265625-.402344.167969-.792969.371094-1.167969.597656-.109375.074219-.195312.1875-.316406.273438-.117188.082031-.417969.367188-.628906.550781-.371094.34375-.714844.71875-1.023438 1.117188-.171875.222656-.324218.445312-.46875.675781-.277344.457031-.507812.941406-.691406 1.441406-.085938.222656-.195312.445313-.265625.671875-.222656.757813-.339844 1.542969-.347656 2.332031v51.175782c-.003907 3.488281 2.117187 6.625 5.355469 7.921875l42.648437 17.0625c.101563 0 .210937 0 .316406.058593.910157.347657 1.878907.53125 2.855469.546876 1.085938-.003907 2.164062-.210938 3.171875-.605469l42.648437-17.0625c3.238282-1.296875 5.359376-4.433594 5.359376-7.921875v-51.175782c-.011719-.789062-.128907-1.574218-.351563-2.332031-.066406-.226562-.179687-.449219-.265625-.671875zm-50.5625-4.871094 19.679688 7.871094-19.679688 7.875-19.675781-7.875zm-34.117188 20.472657 25.589844 10.234375v32.804687l-25.589844-10.234375zm42.648438 43.039062v-32.804687l25.585938-10.234375v32.804687zm0 0"/></svg>