<?xml version="1.0" encoding="iso-8859-1"?>
<!-- Generator: Adobe Illustrator 19.0.0, SVG Export Plug-In . SVG Version: 6.00 Build 0)  -->
<svg version="1.1" id="Capa_1" xmlns="http://www.w3.org/2000/svg" xmlns:xlink="http://www.w3.org/1999/xlink" x="0px" y="0px"
	 viewBox="0 0 496.485 496.485" style="enable-background:new 0 0 496.485 496.485;" xml:space="preserve">
<circle style="fill:#4FBF9F;" cx="159.806" cy="336.679" r="159.806"/>
<path style="fill:#2EA2DB;" d="M373.915,151.273v140.412c0,31.806,25.6,57.406,57.406,57.406s57.406-25.6,57.406-57.406V151.273
	H373.915z"/>
<path style="fill:#193651;" d="M431.321,356.849c-35.685,0-65.164-29.479-65.164-65.164V151.273c0-4.655,3.103-7.758,7.758-7.758
	h114.812c4.655,0,7.758,3.103,7.758,7.758v140.412C496.485,327.37,467.006,356.849,431.321,356.849z M381.673,159.03v132.655
	c0,27.152,22.497,49.648,49.648,49.648c27.152,0,49.648-22.497,49.648-49.648V159.03H381.673z"/>
<path style="fill:#FFFFFF;" d="M404.945,182.303v109.382c0,14.739,11.636,26.376,26.376,26.376
	c14.739,0,26.376-11.636,26.376-26.376V182.303H404.945z"/>
<path style="fill:#FDBF5E;" d="M373.915,291.685c0,31.806,25.6,57.406,57.406,57.406l0,0H173.77
	c-31.806,0-57.406-25.6-57.406-57.406V7.758h257.552V291.685z"/>
<path style="fill:#193651;" d="M431.321,341.333L431.321,341.333L431.321,341.333c-27.152,0-49.648-22.497-49.648-49.648V7.758
	c0-4.655-3.103-7.758-7.758-7.758H116.364c-4.655,0-7.758,3.103-7.758,7.758v283.927c0,35.685,29.479,65.164,65.164,65.164h257.552
	l0,0c4.655,0,7.758-3.103,7.758-7.758S435.976,341.333,431.321,341.333z M173.77,341.333c-27.152,0-49.648-22.497-49.648-49.648
	V15.515h242.036v276.17c0,20.17,8.533,38.012,23.273,49.648H173.77z"/>
<path style="fill:#FFFFFF;" d="M147.394,38.788v252.897c0,14.739,11.636,26.376,26.376,26.376h173.77
	c-2.327-8.533-3.879-17.067-3.879-26.376V38.788H147.394z"/>
<g>
	<path style="fill:#193651;" d="M292.461,286.255h-69.042c-4.655,0-7.758-3.103-7.758-7.758c0-4.655,3.103-7.758,7.758-7.758h69.042
		c4.655,0,7.758,3.103,7.758,7.758C300.218,282.376,297.115,286.255,292.461,286.255z"/>
	<path style="fill:#193651;" d="M292.461,235.83h-55.079c-4.655,0-7.758-3.103-7.758-7.758c0-4.655,3.103-7.758,7.758-7.758h55.079
		c4.655,0,7.758,3.103,7.758,7.758C300.218,232.727,297.115,235.83,292.461,235.83z"/>
	<path style="fill:#193651;" d="M292.461,186.182H183.079c-4.655,0-7.758-3.103-7.758-7.758c0-4.655,3.103-7.758,7.758-7.758
		h109.382c4.655,0,7.758,3.103,7.758,7.758C300.218,182.303,297.115,186.182,292.461,186.182z"/>
	<path style="fill:#193651;" d="M292.461,135.758H183.079c-4.655,0-7.758-3.103-7.758-7.758c0-4.655,3.103-7.758,7.758-7.758
		h109.382c4.655,0,7.758,3.103,7.758,7.758C300.218,132.655,297.115,135.758,292.461,135.758z"/>
	<rect x="263.758" y="65.939" style="fill:#193651;" width="15.515" height="15.515"/>
</g>
<g>
	<rect x="196.267" y="65.939" style="fill:#193651;" width="15.515" height="15.515"/>
	<rect x="230.4" y="65.939" style="fill:#193651;" width="15.515" height="15.515"/>
</g>
<path style="fill:#FFFFFF;" d="M228.848,249.794v-10.085H90.764v10.085c0,33.358,20.945,63.612,58.182,86.885
	c-37.236,23.273-58.182,55.079-58.182,88.436v8.533h138.085v-8.533c0-33.358-20.945-65.939-58.182-88.436
	C207.903,313.406,228.848,283.152,228.848,249.794z"/>
<path id="SVGCleanerId_0" style="fill:#193651;" d="M228.848,441.406H90.764c-4.655,0-7.758-3.103-7.758-7.758v-8.533
	c0-33.358,18.618-65.164,51.976-88.436c-33.358-24.048-51.976-54.303-51.976-86.885v-10.085c0-4.655,3.103-7.758,7.758-7.758
	h138.085c4.655,0,7.758,3.103,7.758,7.758v10.085c0,32.582-18.618,62.836-51.976,86.885c33.358,24.048,51.976,55.855,51.976,88.436
	v8.533C236.606,437.527,233.503,441.406,228.848,441.406z M98.521,425.891h122.57v-0.776c0-31.03-20.17-60.509-54.303-82.23
	c-2.327-1.552-3.879-3.879-3.879-6.206s1.552-5.43,3.879-6.206c35.685-22.497,54.303-49.648,54.303-80.679v-2.327H98.521v2.327
	c0,30.255,18.618,58.182,54.303,80.679c2.327,1.552,3.879,3.879,3.879,6.206s-1.552,4.655-3.879,6.206
	C118.691,364.606,98.521,394.861,98.521,425.891L98.521,425.891z"/>
<rect x="82.23" y="214.109" style="fill:#FFFFFF;" width="155.152" height="24.824"/>
<path style="fill:#193651;" d="M245.139,247.467H74.473v-40.339h170.667V247.467z M89.988,231.952h139.636v-9.309H89.988V231.952z"
	/>
<g>
	<path style="fill:#E1E6E9;" d="M92.315,265.309c5.43,27.152,25.6,51.976,56.63,71.37h22.497c31.03-19.394,51.2-44.218,56.63-71.37
		H92.315z"/>
	<path style="fill:#E1E6E9;" d="M93.867,403.394c-1.552,6.982-3.103,13.964-3.103,21.721v8.533h138.085v-8.533
		c0-6.982-0.776-14.739-3.103-21.721H93.867z"/>
</g>
<rect x="82.696" y="433.571" style="fill:#FFFFFF;" width="155.152" height="24.824"/>
<path style="fill:#193651;" d="M245.139,466.23H74.473v-40.339h170.667V466.23z M89.988,450.715h139.636v-9.309H89.988V450.715z"/>
<g>
	<path id="SVGCleanerId_0_1_" style="fill:#193651;" d="M228.848,441.406H90.764c-4.655,0-7.758-3.103-7.758-7.758v-8.533
		c0-33.358,18.618-65.164,51.976-88.436c-33.358-24.048-51.976-54.303-51.976-86.885v-10.085c0-4.655,3.103-7.758,7.758-7.758
		h138.085c4.655,0,7.758,3.103,7.758,7.758v10.085c0,32.582-18.618,62.836-51.976,86.885c33.358,24.048,51.976,55.855,51.976,88.436
		v8.533C236.606,437.527,233.503,441.406,228.848,441.406z M98.521,425.891h122.57v-0.776c0-31.03-20.17-60.509-54.303-82.23
		c-2.327-1.552-3.879-3.879-3.879-6.206s1.552-5.43,3.879-6.206c35.685-22.497,54.303-49.648,54.303-80.679v-2.327H98.521v2.327
		c0,30.255,18.618,58.182,54.303,80.679c2.327,1.552,3.879,3.879,3.879,6.206s-1.552,4.655-3.879,6.206
		C118.691,364.606,98.521,394.861,98.521,425.891L98.521,425.891z"/>
</g>
<g>
	<circle style="fill:#E1E6E9;" cx="159.806" cy="358.4" r="6.206"/>
	<circle style="fill:#E1E6E9;" cx="183.079" cy="376.242" r="6.206"/>
	<circle style="fill:#E1E6E9;" cx="153.6" cy="386.327" r="6.206"/>
</g>
<g>
</g>
<g>
</g>
<g>
</g>
<g>
</g>
<g>
</g>
<g>
</g>
<g>
</g>
<g>
</g>
<g>
</g>
<g>
</g>
<g>
</g>
<g>
</g>
<g>
</g>
<g>
</g>
<g>
</g>
</svg>
