<svg xmlns="http://www.w3.org/2000/svg" height="511pt" version="1.1" viewBox="1 -25 511.99998 511" width="511pt">
<g id="surface1">
<path d="M 124.410156 190.039062 L 132.945312 271.773438 L 173.230469 230.90625 L 223.230469 230.90625 L 256.003906 132.554688 L 256.003906 0.5 L 204.804688 0.5 C 195.378906 0.5 187.738281 8.140625 187.738281 17.566406 L 187.738281 146.746094 C 187.738281 155.523438 180.625 162.636719 171.847656 162.636719 L 42.667969 162.636719 C 33.242188 162.636719 25.601562 170.277344 25.601562 179.703125 L 25.601562 230.90625 L 75.007812 230.90625 Z M 124.410156 190.039062 " style=" stroke:none;fill-rule:nonzero;fill:rgb(100%,46.666667%,32.941176%);fill-opacity:1;" />
<path d="M 469.34375 162.636719 L 340.164062 162.636719 C 331.386719 162.636719 324.273438 155.523438 324.273438 146.746094 L 324.273438 17.566406 C 324.273438 8.140625 316.632812 0.5 307.207031 0.5 L 256.003906 0.5 L 256.003906 132.554688 L 256.160156 132.09375 L 306.464844 280.304688 L 347.035156 197.964844 L 379.964844 272.070312 L 404.371094 230.90625 L 486.410156 230.90625 L 486.410156 179.703125 C 486.410156 170.277344 478.769531 162.636719 469.34375 162.636719 Z M 469.34375 162.636719 " style=" stroke:none;fill-rule:nonzero;fill:rgb(100%,52.156863%,42.745098%);fill-opacity:1;" />
<path d="M 223.21875 230.90625 L 173.230469 230.90625 L 132.953125 271.773438 L 124.417969 190.039062 L 75.007812 230.90625 L 25.601562 230.90625 L 25.601562 282.105469 C 25.601562 291.53125 33.242188 299.171875 42.667969 299.171875 L 171.847656 299.171875 C 180.625 299.171875 187.738281 306.289062 187.738281 315.0625 L 187.738281 444.242188 C 187.738281 453.667969 195.378906 461.308594 204.804688 461.308594 L 256.003906 461.308594 L 256.003906 132.554688 Z M 223.21875 230.90625 " style=" stroke:none;fill-rule:nonzero;fill:rgb(100%,46.666667%,32.941176%);fill-opacity:1;" />
<path d="M 379.964844 272.070312 L 347.03125 197.964844 L 306.464844 280.304688 L 256.160156 132.09375 L 256.003906 132.554688 L 256.003906 461.308594 L 307.207031 461.308594 C 316.632812 461.308594 324.273438 453.667969 324.273438 444.242188 L 324.273438 315.0625 C 324.273438 306.289062 331.386719 299.171875 340.164062 299.171875 L 469.34375 299.171875 C 478.769531 299.171875 486.410156 291.53125 486.410156 282.105469 L 486.410156 230.90625 L 404.371094 230.90625 Z M 379.964844 272.070312 " style=" stroke:none;fill-rule:nonzero;fill:rgb(100%,52.156863%,42.745098%);fill-opacity:1;" />
<path d="M 306.457031 288.839844 L 305.902344 288.839844 C 302.453125 288.613281 299.484375 286.332031 298.375 283.0625 L 256.226562 158.867188 L 231.308594 233.601562 C 230.148438 237.085938 226.890625 239.4375 223.21875 239.441406 L 176.796875 239.441406 L 139.019531 277.761719 C 135.707031 281.117188 130.304688 281.148438 126.953125 277.835938 C 125.546875 276.445312 124.664062 274.609375 124.460938 272.644531 L 117.574219 206.746094 L 80.453125 237.46875 C 78.921875 238.734375 77 239.433594 75.007812 239.441406 L 8.535156 239.441406 C 3.820312 239.441406 0 235.617188 0 230.90625 C 0 226.195312 3.820312 222.371094 8.535156 222.371094 L 71.9375 222.371094 L 118.964844 183.460938 C 122.597656 180.457031 127.976562 180.964844 130.980469 184.597656 C 132.054688 185.890625 132.71875 187.476562 132.894531 189.152344 L 139.558594 252.90625 L 167.148438 224.914062 C 168.753906 223.285156 170.945312 222.371094 173.230469 222.371094 L 217.078125 222.371094 L 248.070312 129.355469 C 249.230469 125.882812 252.480469 123.535156 256.144531 123.527344 C 259.800781 123.527344 263.050781 125.859375 264.222656 129.320312 L 307.898438 258.015625 L 339.378906 194.210938 C 341.460938 189.984375 346.578125 188.246094 350.804688 190.328125 C 352.597656 191.210938 354.023438 192.691406 354.832031 194.519531 L 381.046875 253.519531 L 397.023438 226.570312 C 398.558594 223.976562 401.355469 222.386719 404.371094 222.386719 L 503.476562 222.386719 C 508.191406 222.394531 512.007812 226.222656 512 230.933594 C 511.992188 235.636719 508.183594 239.449219 503.476562 239.457031 L 409.226562 239.457031 L 387.3125 276.441406 C 384.917969 280.5 379.6875 281.855469 375.628906 279.464844 C 374.097656 278.5625 372.886719 277.207031 372.164062 275.585938 L 346.632812 218.105469 L 314.121094 284.09375 C 312.675781 287.007812 309.707031 288.84375 306.457031 288.839844 Z M 306.457031 288.839844 " style=" stroke:none;fill-rule:nonzero;fill:rgb(80.392157%,16.470588%,0%);fill-opacity:1;" />
</g>
</svg>