<?xml version="1.0" encoding="utf-8"?>
<!-- Generator: Adobe Illustrator 16.0.0, SVG Export Plug-In . SVG Version: 6.00 Build 0)  -->
<!DOCTYPE svg PUBLIC "-//W3C//DTD SVG 1.1//EN" "http://www.w3.org/Graphics/SVG/1.1/DTD/svg11.dtd">
<svg version="1.1" id="Layer_1" xmlns="http://www.w3.org/2000/svg" xmlns:xlink="http://www.w3.org/1999/xlink" x="0px" y="0px"
	 width="81.67px" height="58.556px" viewBox="0 0 81.67 58.556" enable-background="new 0 0 81.67 58.556" xml:space="preserve">
<g display="none">
	<linearGradient id="SVGID_1_" gradientUnits="userSpaceOnUse" x1="-23.6514" y1="29.2778" x2="133.8408" y2="29.2778">
		<stop  offset="0" style="stop-color:#8A8A8A"/>
		<stop  offset="0.1177" style="stop-color:#7E7E7E"/>
		<stop  offset="0.3302" style="stop-color:#5E5E5E"/>
		<stop  offset="0.6109" style="stop-color:#2B2B2B"/>
		<stop  offset="0.8113" style="stop-color:#030303"/>
	</linearGradient>
	<path display="inline" fill="url(#SVGID_1_)" d="M42.228,0c-1.041,0-1.942,0.381-2.7,1.14L19.553,13.924H3.839
		c-1.041,0-1.942,0.381-2.701,1.14C0.378,15.824,0,16.724,0,17.763v23.032c0,1.041,0.379,1.939,1.138,2.699
		c0.759,0.76,1.66,1.138,2.701,1.138h15.714l19.975,12.784c0.76,0.762,1.659,1.14,2.7,1.14c1.04,0,1.938-0.38,2.699-1.14
		c0.757-0.758,1.139-1.658,1.139-2.698V3.839c0-1.039-0.382-1.939-1.139-2.699C44.166,0.383,43.266,0,42.228,0z"/>
	<linearGradient id="SVGID_2_" gradientUnits="userSpaceOnUse" x1="-23.6514" y1="29.2798" x2="133.8407" y2="29.2798">
		<stop  offset="0" style="stop-color:#8A8A8A"/>
		<stop  offset="0.1177" style="stop-color:#7E7E7E"/>
		<stop  offset="0.3302" style="stop-color:#5E5E5E"/>
		<stop  offset="0.6109" style="stop-color:#2B2B2B"/>
		<stop  offset="0.8113" style="stop-color:#030303"/>
	</linearGradient>
	<path display="inline" fill="url(#SVGID_2_)" d="M63.766,37.766c1.699-2.618,2.547-5.447,2.547-8.488
		c0-3.037-0.848-5.878-2.547-8.517c-1.701-2.638-3.949-4.498-6.748-5.577c-0.402-0.2-0.9-0.3-1.502-0.3
		c-1.039,0-1.939,0.368-2.697,1.11c-0.762,0.741-1.141,1.648-1.141,2.728c0,0.839,0.242,1.552,0.721,2.129
		c0.48,0.583,1.061,1.081,1.738,1.501c0.682,0.421,1.361,0.88,2.041,1.38c0.678,0.5,1.26,1.209,1.74,2.129
		c0.479,0.92,0.719,2.06,0.719,3.418c0,1.361-0.24,2.5-0.719,3.418c-0.48,0.922-1.063,1.631-1.74,2.129
		c-0.68,0.501-1.359,0.961-2.041,1.381c-0.678,0.421-1.258,0.922-1.738,1.5c-0.479,0.58-0.721,1.289-0.721,2.13
		c0,1.079,0.381,1.99,1.141,2.729c0.758,0.74,1.658,1.109,2.697,1.109c0.602,0,1.1-0.098,1.502-0.3
		C59.816,42.255,62.064,40.385,63.766,37.766z"/>
	<linearGradient id="SVGID_3_" gradientUnits="userSpaceOnUse" x1="-23.6548" y1="29.2798" x2="133.8438" y2="29.2798">
		<stop  offset="0" style="stop-color:#8A8A8A"/>
		<stop  offset="0.1177" style="stop-color:#7E7E7E"/>
		<stop  offset="0.3302" style="stop-color:#5E5E5E"/>
		<stop  offset="0.6109" style="stop-color:#2B2B2B"/>
		<stop  offset="0.8113" style="stop-color:#030303"/>
	</linearGradient>
	<path display="inline" fill="url(#SVGID_3_)" d="M63.074,1.028c-0.52-0.2-1.041-0.3-1.557-0.3c-1.041,0-1.941,0.379-2.701,1.14
		c-0.76,0.759-1.139,1.658-1.139,2.699c0,1.56,0.779,2.74,2.34,3.539c2.238,1.161,3.758,2.04,4.559,2.638
		c2.959,2.16,5.268,4.869,6.926,8.127c1.662,3.262,2.49,6.73,2.49,10.407c0,3.679-0.828,7.148-2.49,10.408
		c-1.658,3.26-3.967,5.969-6.926,8.128c-0.801,0.601-2.32,1.479-4.559,2.64c-1.561,0.8-2.34,1.98-2.34,3.539
		c0,1.04,0.381,1.939,1.139,2.699c0.76,0.762,1.682,1.14,2.76,1.14c0.479,0,0.979-0.1,1.498-0.3
		c5.6-2.357,10.098-6.128,13.496-11.307c3.398-5.178,5.1-10.826,5.1-16.945c0-6.118-1.701-11.765-5.1-16.945
		C73.172,7.155,68.674,3.387,63.074,1.028z"/>
</g>
<g>
	<linearGradient id="SVGID_4_" gradientUnits="userSpaceOnUse" x1="-13.1265" y1="23.0298" x2="97.9194" y2="33.3416">
		<stop  offset="0" style="stop-color:#EF7986"/>
		<stop  offset="1" style="stop-color:#E52820"/>
	</linearGradient>
	<path fill="url(#SVGID_4_)" d="M71.396,30.27l9.867-9.868c1.447-1.446,1.447-3.815,0-5.262l-1.314-1.314
		c-1.449-1.449-3.814-1.449-5.262,0l-9.865,9.868l-9.867-9.868c-1.449-1.447-3.816-1.447-5.262,0l-1.316,1.314
		c-1.445,1.446-1.445,3.815,0,5.262l9.865,9.866l-9.865,9.867c-1.445,1.447-1.445,3.814,0,5.262l1.316,1.314
		c1.445,1.447,3.813,1.447,5.262,0l9.867-9.867l9.865,9.867c1.447,1.447,3.813,1.447,5.262,0l1.314-1.314
		c1.447-1.447,1.447-3.814,0-5.262L71.396,30.27z"/>
	<linearGradient id="SVGID_5_" gradientUnits="userSpaceOnUse" x1="-13.3311" y1="25.1919" x2="97.7181" y2="35.504">
		<stop  offset="0" style="stop-color:#EF7986"/>
		<stop  offset="1" style="stop-color:#E52820"/>
	</linearGradient>
	<path fill="url(#SVGID_5_)" d="M41.334,1.782c-1.012,0-1.889,0.371-2.627,1.109L19.275,15.329H3.986
		c-1.014,0-1.891,0.371-2.629,1.109c-0.738,0.739-1.107,1.615-1.107,2.626v22.409c0,1.012,0.369,1.888,1.107,2.627
		c0.738,0.738,1.615,1.106,2.629,1.106h15.289l19.432,12.438c0.742,0.741,1.615,1.109,2.627,1.109c1.014,0,1.887-0.368,2.627-1.109
		c0.736-0.736,1.107-1.612,1.107-2.624V5.518c0-1.011-0.371-1.887-1.107-2.626C43.221,2.155,42.344,1.782,41.334,1.782z"/>
</g>
</svg>
