<?xml version="1.0" encoding="utf-8"?>
<!-- Generator: Adobe Illustrator 16.0.0, SVG Export Plug-In . SVG Version: 6.00 Build 0)  -->
<!DOCTYPE svg PUBLIC "-//W3C//DTD SVG 1.1//EN" "http://www.w3.org/Graphics/SVG/1.1/DTD/svg11.dtd">
<svg version="1.1" id="Layer_1" xmlns="http://www.w3.org/2000/svg" xmlns:xlink="http://www.w3.org/1999/xlink" x="0px" y="0px"
	 width="302.668px" height="302.668px" viewBox="0 0 302.668 302.668" enable-background="new 0 0 302.668 302.668"
	 xml:space="preserve">
<circle fill="#3BAEE4" cx="151.334" cy="151.334" r="151.334"/>
<g>
	<path fill="#FFFFFF" stroke="#000000" stroke-width="4" stroke-miterlimit="10" d="M38.522,176.434c0,0-1.583,20.604-19.833,18.833
		c-7.375-0.666,0.5-15.25,3.167-18.249c1.958-2.709-9.406-3.033-0.375-15.042c1.833-2.833,5.608-4.386,8.202-4.104
		c2.656-3.938,12.715-32.729,15.548-38.729c-1.084-1.958,0.494-4.361-1.625-5.292c-1.896-0.833,0.083-4,1.396-4.854
		c1.604-1.021,2.708-1.438,7.573-1.563c2.947-0.076,6.864,0.375,9.447,3.875c5.334,7.208,7.5,30.792,9.5,48
		c0.459,4.57,9.917,27.125,9.417,28.542c-3.667,4.624-7.583,7.708-13.875,7.208c-4.505-0.358-5.667-1.917-7.5-6.834
		s-1.375-8.124-2.625-11.874C48.772,176.518,40.585,176.621,38.522,176.434z M50.564,140.621c0,0-5.25,15.688-5.5,16.813
		c3.25,0.188,8.25,0,8.25,0S51.877,144.434,50.564,140.621z"/>
	<g>
		<path fill="#FFFFFF" stroke="#000000" stroke-width="4" stroke-miterlimit="10" d="M113.292,147.005
			c0,0-11.125,50.083-27.416,48.083c-4.5-0.208-3.959-3.708-3.209-5.833s27.127-62.376,26.877-72.376
			c-0.75-2.25-4.377-7.249,0.957-8.916c0,0,12.5-2.542,15.875,3.083c2.541,6.417,5.424,29.333,6.916,46.583
			c2.5-2.5,10.96-36.459,16.46-45.542c1.305-2.156,5.582-6.334,16.832-4.209c1,10.875-0.041,49.042,2.043,55.584
			c2.125,9.458,9.268,17.394,8.375,21.75c-0.709,3.458-3.959,9.041-10.543,9.541c-7.959,0.194-14.666-7.25-15.832-14.541
			c-1.625-11.75-2.5-26.5-2.625-30.125c-2.625,6.125-9.251,27.5-10.626,31.625s-2.938,10.031-4.959,12.208
			c-1.625,1.75-5.666,1.917-8.041-1.333s-9.125-16.125-10.25-39.875C114.251,148.463,113.292,147.005,113.292,147.005z"/>
	</g>
	<path fill="#FFFFFF" stroke="#000000" stroke-width="4" stroke-miterlimit="10" d="M186.327,120.631
		c0-3.125-0.25-10.375,18.25-10.875s24.334,10.458,26.125,16.5c3.25,19.625-3.75,27.125-6.375,30.375s-5.249,3.75-5.625,6.375
		c0.375,5.875,12.907,11.363,14.126,14.625c1.416,3.792-1.691,10.753-4.126,13.75c-2.708,3.333-7.541,4.958-11.375,2.788
		c-9.458-5.33-15.75-29.413-16.25-30.663c-2.75,24.625-7.875,25.625-11.75,28.875c-6,3.25-9.208,1.833-9.875-0.75
		c-2.291-13.333,13.334-67.333,13.334-67.333C191.118,124.423,186.078,123.048,186.327,120.631z M209.265,122.944l-5.938,33.375
		c6.125-2.375,10.063-11.625,11.063-18.125S212.452,123.131,209.265,122.944z"/>
	<g>
		<path fill="#FFFFFF" stroke="#000000" stroke-width="4" stroke-miterlimit="10" d="M266.942,170.854
			c0,0-9.625,28.625-23.75,23.938c-5.75-2-11-8.5-7.375-34.313c3.805-27.093,7.875-45,13.813-51.125c3.188-2.625,16.25-2.5,15,3.5
			c-1.505,7.223-11.625,47.438-10.75,54.875c3.875-3.563,16.688-31.75,20.188-41.875c1.563-6.375,10.938-8.625,12.988-3.435
			c-0.125,7.25-1.988,49.685,0.637,56.81c1.875,5.563,3.25,13.938-6.125,15.875c-6.438,0.813-11.375-0.625-13.75-19.125
			C267.692,172.479,267.317,171.479,266.942,170.854z"/>
	</g>
</g>
<g>
	<defs>
		<rect id="SVGID_1_" x="17.293" y="221.487" width="269.363" height="4.951"/>
	</defs>
	<clipPath id="SVGID_2_">
		<use xlink:href="#SVGID_1_"  overflow="visible"/>
	</clipPath>
	<circle clip-path="url(#SVGID_2_)" fill="#FEBE27" cx="151.308" cy="151.284" r="151.334"/>
</g>
<g>
	<defs>
		<rect id="SVGID_3_" x="28.235" y="239.837" width="248.197" height="4.561"/>
	</defs>
	<clipPath id="SVGID_4_">
		<use xlink:href="#SVGID_3_"  overflow="visible"/>
	</clipPath>
	<circle clip-path="url(#SVGID_4_)" fill="#FEBE27" cx="151.334" cy="151.429" r="151.334"/>
</g>
</svg>
